<?xml version="1.0" standalone="no"?><!DOCTYPE svg PUBLIC "-//W3C//DTD SVG 1.1//EN" "http://www.w3.org/Graphics/SVG/1.1/DTD/svg11.dtd"><svg t="1674744579457" class="icon" viewBox="0 0 1024 1024" version="1.1" xmlns="http://www.w3.org/2000/svg" p-id="2599" xmlns:xlink="http://www.w3.org/1999/xlink" width="200" height="200"><path d="M112.64 967.68h799.744l66.048-90.112c-81.92-109.568-265.728-186.368-479.232-186.368-193.536 0-362.496 62.976-453.12 156.16L112.64 967.68z" fill="#D4ECFF" p-id="2600"></path><path d="M892.928 71.68c-23.552 0-43.008 19.456-43.008 43.008s19.456 43.008 43.008 43.008c44.544 0 46.592 48.64 46.592 58.368v633.344c0 40.448-13.824 83.456-34.816 83.456H146.432c-26.624 0-59.904-46.08-59.904-83.456V212.48c-0.512-29.696 23.04-54.784 53.248-55.296 23.552 1.024 43.52-17.92 44.544-41.472 1.024-23.552-17.92-43.52-41.472-44.544h-6.144C59.392 74.24-1.024 138.752 1.024 216.064v633.344c0 77.824 63.488 169.472 145.408 169.472h757.76c81.92 0 119.808-87.552 119.808-169.472V215.04c0.512-3.072 0.512-5.632 0.512-8.704 1.024-73.728-57.856-133.632-131.584-134.656" fill="#272F35" p-id="2601"></path><path d="M373.76 132.096h278.528c22.528 0 40.96-17.92 41.472-40.448v-0.512c-0.512-22.528-18.944-40.96-41.984-40.96H370.688c-22.528 1.024-40.448 19.968-39.936 42.496 1.024 22.528 19.968 39.936 43.008 39.424m-125.952 76.8c24.064 0 43.52-19.456 43.52-43.008V46.08c-2.048-23.552-22.528-40.96-46.08-38.912-23.04 0.512-41.472 19.968-40.96 43.008v115.712c0 24.064 19.456 43.008 43.52 43.008m530.944 0c24.064 0 43.52-19.456 43.52-43.52V46.08c-2.048-23.552-22.528-40.96-46.08-38.912-23.552 0.512-41.984 19.968-41.472 43.008v115.712c0.512 24.064 19.968 43.008 44.032 43.008" fill="#272F35" p-id="2602"></path><path d="M309.76 414.72h399.36c29.184 0 43.52 14.336 43.52 43.52s-14.336 43.52-43.52 43.52h-399.36c-29.184 0-43.52-14.336-43.52-43.52s14.336-43.52 43.52-43.52z" fill="#D4ECFF" p-id="2603"></path></svg>