<?xml version="1.0" standalone="no"?><!DOCTYPE svg PUBLIC "-//W3C//DTD SVG 1.1//EN" "http://www.w3.org/Graphics/SVG/1.1/DTD/svg11.dtd"><svg t="1672763130471" class="icon" viewBox="0 0 1188 1024" version="1.1" xmlns="http://www.w3.org/2000/svg" p-id="5372" xmlns:xlink="http://www.w3.org/1999/xlink" width="232.03125" height="200"><path d="M240.00032 0l-191.99616 0c-27.811284 0-48.00416 20.192876-48.00416 48.00416l0 927.99168c0 27.811284 20.192876 48.00416 48.00416 48.00416l1087.97824 0c27.811284 0 48.00416-20.192876 48.00416-48.00416l0-927.99168c0-27.811284-20.192876-48.00416-48.00416-48.00416l-895.98208 0zM32.0096 975.97536l0-927.99168c0-10.01452 5.98004-15.99456 15.99456-15.99456l176.0016 0 0 959.9808-176.0016 0c-10.01452 0-15.99456-5.98004-15.99456-15.99456zM255.99488 991.9904l0-959.9808 671.9968 0 0 959.9808-671.9968 0zM1151.97696 48.00416l0 927.99168c0 10.01452-5.98004 15.99456-15.99456 15.99456l-176.0016 0 0-959.9808 176.0016 0c10.01452 0 15.99456 5.98004 15.99456 15.99456zM472.853263 322.676426c-4.894622-3.256255-11.222816-3.583928-16.445111-0.798704-5.160857 2.785224-8.417112 8.191836-8.417112 14.110438l0 383.99232c0 5.918602 3.256255 11.325213 8.437591 14.110438 2.375632 1.249255 4.956061 1.884122 7.556969 1.884122 3.112898 0 6.184836-0.901102 8.867663-2.682826l288.00448-191.99616c4.444071-2.969541 7.126897-7.966561 7.126897-13.311734s-2.682826-10.342193-7.126897-13.311734l-288.00448-191.99616zM480.00064 690.100758l0-324.212396 243.154177 162.116438-243.154177 162.116438zM160.00704 255.99488l-63.99872 0c-8.826703 0-15.99456 7.167857-15.99456 15.99456s7.167857 15.99456 15.99456 15.99456l63.99872 0c8.826703 0 15.99456-7.167857 15.99456-15.99456s-7.167857-15.99456-15.99456-15.99456zM96.00832 160.00704l63.99872 0c8.826703 0 15.99456-7.167857 15.99456-15.99456s-7.167857-15.99456-15.99456-15.99456l-63.99872 0c-8.826703 0-15.99456 7.167857-15.99456 15.99456s7.167857 15.99456 15.99456 15.99456zM160.00704 383.99232l-63.99872 0c-8.826703 0-15.99456 7.167857-15.99456 15.99456s7.167857 15.99456 15.99456 15.99456l63.99872 0c8.826703 0 15.99456-7.167857 15.99456-15.99456s-7.167857-15.99456-15.99456-15.99456zM160.00704 511.98976l-63.99872 0c-8.826703 0-15.99456 7.167857-15.99456 15.99456s7.167857 15.99456 15.99456 15.99456l63.99872 0c8.826703 0 15.99456-7.167857 15.99456-15.99456s-7.167857-15.99456-15.99456-15.99456zM160.00704 639.9872l-63.99872 0c-8.826703 0-15.99456 7.167857-15.99456 15.99456s7.167857 15.99456 15.99456 15.99456l63.99872 0c8.826703 0 15.99456-7.167857 15.99456-15.99456s-7.167857-15.99456-15.99456-15.99456zM160.00704 767.98464l-63.99872 0c-8.826703 0-15.99456 7.167857-15.99456 15.99456s7.167857 15.99456 15.99456 15.99456l63.99872 0c8.826703 0 15.99456-7.167857 15.99456-15.99456s-7.167857-15.99456-15.99456-15.99456zM160.00704 895.98208l-63.99872 0c-8.826703 0-15.99456 7.167857-15.99456 15.99456s7.167857 15.99456 15.99456 15.99456l63.99872 0c8.826703 0 15.99456-7.167857 15.99456-15.99456s-7.167857-15.99456-15.99456-15.99456zM1023.97952 288.00448l63.99872 0c8.826703 0 15.99456-7.167857 15.99456-15.99456s-7.167857-15.99456-15.99456-15.99456l-63.99872 0c-8.826703 0-15.99456 7.167857-15.99456 15.99456s7.167857 15.99456 15.99456 15.99456zM1023.97952 160.00704l63.99872 0c8.826703 0 15.99456-7.167857 15.99456-15.99456s-7.167857-15.99456-15.99456-15.99456l-63.99872 0c-8.826703 0-15.99456 7.167857-15.99456 15.99456s7.167857 15.99456 15.99456 15.99456zM1023.97952 416.00192l63.99872 0c8.826703 0 15.99456-7.167857 15.99456-15.99456s-7.167857-15.99456-15.99456-15.99456l-63.99872 0c-8.826703 0-15.99456 7.167857-15.99456 15.99456s7.167857 15.99456 15.99456 15.99456zM1023.97952 543.99936l63.99872 0c8.826703 0 15.99456-7.167857 15.99456-15.99456s-7.167857-15.99456-15.99456-15.99456l-63.99872 0c-8.826703 0-15.99456 7.167857-15.99456 15.99456s7.167857 15.99456 15.99456 15.99456zM1023.97952 671.9968l63.99872 0c8.826703 0 15.99456-7.167857 15.99456-15.99456s-7.167857-15.99456-15.99456-15.99456l-63.99872 0c-8.826703 0-15.99456 7.167857-15.99456 15.99456s7.167857 15.99456 15.99456 15.99456zM1023.97952 799.99424l63.99872 0c8.826703 0 15.99456-7.167857 15.99456-15.99456s-7.167857-15.99456-15.99456-15.99456l-63.99872 0c-8.826703 0-15.99456 7.167857-15.99456 15.99456s7.167857 15.99456 15.99456 15.99456zM1087.97824 895.98208l-63.99872 0c-8.826703 0-15.99456 7.167857-15.99456 15.99456s7.167857 15.99456 15.99456 15.99456l63.99872 0c8.826703 0 15.99456-7.167857 15.99456-15.99456s-7.167857-15.99456-15.99456-15.99456z" fill="#444444" p-id="5373"></path></svg>